<svg width="64" height="64" viewBox="0 0 1500 1500" fill="none"
  xmlns="http://www.w3.org/2000/svg">
  <g clip-path="url(#clip0_5_2)">
    <path
      d="M87 742.327C87 717.983 98.0845 694.964 117.116 679.784L700.116 214.787C729.299 191.511 770.701 191.511 799.884 214.787L1382.88 679.784C1401.92 694.964 1413 717.983 1413 742.327V1419C1413 1463.18 1377.18 1499 1333 1499H167C122.817 1499 87 1463.18 87 1419V742.327Z"
      fill="#A6A09B" />
    <path
      d="M1253.72 194.097C1124.74 9.4287 870.004 -45.3077 685.819 72.084L362.345 278.322C318.646 305.823 281.165 342.142 252.296 384.958C223.428 427.774 203.807 476.145 194.689 526.978C179.258 612.604 192.821 700.932 233.229 777.979C205.54 819.995 186.655 867.192 177.716 916.716C168.5 968.573 169.729 1021.75 181.33 1073.12C192.931 1124.5 214.67 1173.04 245.272 1215.9C374.279 1400.59 629.015 1455.3 813.171 1337.91L1136.65 1131.68C1180.35 1104.18 1217.83 1067.86 1246.7 1025.04C1275.57 982.228 1295.19 933.855 1304.3 883.021C1319.73 797.396 1306.18 709.069 1265.79 632.014C1293.47 589.998 1312.35 542.803 1321.28 493.282C1330.5 441.425 1329.27 388.248 1317.67 336.872C1306.07 285.495 1284.33 236.954 1253.72 194.097Z"
      fill="#FF3E00" />
    <path
      d="M654.218 1233.28C603.313 1246.52 549.572 1243.81 500.254 1225.52C450.935 1207.24 408.415 1174.25 378.436 1131.02C360.029 1105.24 346.953 1076.05 339.975 1045.16C332.997 1014.26 332.258 982.281 337.8 951.095C339.677 940.856 342.26 930.76 345.53 920.877L351.622 902.295L368.195 914.472C406.468 942.604 449.261 963.993 494.731 977.717L506.753 981.365L505.646 993.368C504.177 1010.44 508.799 1027.49 518.693 1041.48C527.715 1054.5 540.514 1064.44 555.363 1069.96C570.212 1075.47 586.395 1076.29 601.726 1072.31C608.756 1070.43 615.456 1067.48 621.595 1063.58L945.077 857.361C952.993 852.375 959.783 845.795 965.015 838.039C970.248 830.283 973.808 821.522 975.469 812.314C977.129 802.914 976.901 793.278 974.799 783.967C972.696 774.656 968.761 765.857 963.223 758.084C954.195 745.058 941.39 735.117 926.536 729.601C911.683 724.084 895.495 723.259 880.157 727.237C873.137 729.117 866.445 732.06 860.314 735.966L736.876 814.682C716.578 827.593 694.427 837.324 671.19 843.538C620.285 856.778 566.545 854.072 517.228 835.784C467.91 817.497 425.39 784.509 395.412 741.277C377.004 715.505 363.928 686.314 356.95 655.418C349.972 624.522 349.232 592.542 354.776 561.357C360.258 530.789 372.057 501.703 389.419 475.958C406.781 450.213 429.323 428.377 455.603 411.845L779.057 205.614C799.364 192.682 821.531 182.939 844.787 176.723C895.691 163.484 949.431 166.19 998.748 184.477C1048.07 202.764 1090.58 235.751 1120.56 278.983C1138.97 304.756 1152.05 333.947 1159.02 364.843C1166 395.739 1166.74 427.719 1161.2 458.905C1159.31 469.142 1156.73 479.238 1153.47 489.123L1147.38 507.705L1130.81 495.546C1092.54 467.398 1049.75 446 1004.27 432.275L992.247 428.625L993.354 416.622C994.811 399.547 990.19 382.507 980.307 368.51C971.285 355.488 958.486 345.549 943.637 340.035C928.788 334.522 912.605 333.7 897.274 337.681C890.244 339.56 883.544 342.506 877.405 346.416L553.923 552.639C546.009 557.621 539.221 564.199 533.992 571.953C528.763 579.707 525.208 588.467 523.554 597.673C521.884 607.073 522.105 616.711 524.204 626.024C526.303 635.336 530.237 644.137 535.777 651.91C544.805 664.935 557.61 674.877 572.464 680.393C587.317 685.909 603.505 686.734 618.843 682.757C625.871 680.873 632.571 677.928 638.71 674.021L762.133 595.335C782.422 582.407 804.572 572.668 827.812 566.456C878.716 553.216 932.456 555.922 981.774 574.209C1031.09 592.497 1073.61 625.484 1103.59 668.717C1122 694.489 1135.07 723.68 1142.05 754.576C1149.03 785.472 1149.77 817.451 1144.23 848.637C1138.74 879.206 1126.94 908.294 1109.58 934.042C1092.22 959.791 1069.68 981.632 1043.4 998.172L719.943 1204.39C699.636 1217.32 677.474 1227.06 654.218 1233.28Z"
      fill="white" />
    <mask id="mask0_5_2" style="mask-type:alpha" maskUnits="userSpaceOnUse" x="87" y="197"
      width="1326" height="1303">
      <path
        d="M87 743.468C87 719.155 98.0565 696.161 117.047 680.98L700.047 214.932C729.256 191.582 770.744 191.582 799.953 214.932L1382.95 680.98C1401.94 696.162 1413 719.155 1413 743.468V1420C1413 1464.18 1377.18 1500 1333 1500H167C122.817 1500 87 1464.18 87 1420V743.468Z"
        fill="white" />
    </mask>
    <g mask="url(#mask0_5_2)">
      <g filter="url(#filter0_d_5_2)">
        <path
          d="M750 1500H132C107.147 1500 87 1479.85 87 1455V787.887C87 752.189 126.574 730.704 156.511 750.148L725.489 1119.7C740.395 1129.39 759.605 1129.39 774.511 1119.7L1343.49 750.148C1373.43 730.704 1413 752.189 1413 787.887V1455C1413 1479.85 1392.85 1500 1368 1500H750Z"
          fill="#D6D3D1" />
      </g>
      <g filter="url(#filter1_d_5_2)">
        <path
          d="M750 1500H132C107.147 1500 87 1479.85 87 1455V1417.33C87 1402.74 94.072 1389.05 105.973 1380.62L723.96 942.463C739.557 931.404 760.439 931.409 776.031 942.475L1393.53 1380.72C1405.34 1389.1 1412.39 1402.65 1412.48 1417.13L1412.72 1454.72C1412.87 1479.68 1392.68 1500 1367.72 1500H750Z"
          fill="#E7E5E4" />
      </g>
    </g>
  </g>
  <defs>
    <filter id="filter0_d_5_2" x="-26.8" y="629.013" width="1553.6" height="984.787"
      filterUnits="userSpaceOnUse" color-interpolation-filters="sRGB">
      <feFlood flood-opacity="0" result="BackgroundImageFix" />
      <feColorMatrix in="SourceAlpha" type="matrix"
        values="0 0 0 0 0 0 0 0 0 0 0 0 0 0 0 0 0 0 127 0" result="hardAlpha" />
      <feOffset />
      <feGaussianBlur stdDeviation="56.9" />
      <feComposite in2="hardAlpha" operator="out" />
      <feColorMatrix type="matrix" values="0 0 0 0 0 0 0 0 0 0 0 0 0 0 0 0 0 0 0.36 0" />
      <feBlend mode="normal" in2="BackgroundImageFix" result="effect1_dropShadow_5_2" />
      <feBlend mode="normal" in="SourceGraphic" in2="effect1_dropShadow_5_2" result="shape" />
    </filter>
    <filter id="filter1_d_5_2" x="-4.8" y="842.372" width="1509.32" height="749.428"
      filterUnits="userSpaceOnUse" color-interpolation-filters="sRGB">
      <feFlood flood-opacity="0" result="BackgroundImageFix" />
      <feColorMatrix in="SourceAlpha" type="matrix"
        values="0 0 0 0 0 0 0 0 0 0 0 0 0 0 0 0 0 0 127 0" result="hardAlpha" />
      <feOffset />
      <feGaussianBlur stdDeviation="45.9" />
      <feComposite in2="hardAlpha" operator="out" />
      <feColorMatrix type="matrix" values="0 0 0 0 0 0 0 0 0 0 0 0 0 0 0 0 0 0 0.15 0" />
      <feBlend mode="normal" in2="BackgroundImageFix" result="effect1_dropShadow_5_2" />
      <feBlend mode="normal" in="SourceGraphic" in2="effect1_dropShadow_5_2" result="shape" />
    </filter>
    <clipPath id="clip0_5_2">
      <rect width="1500" height="1500" fill="white" />
    </clipPath>
  </defs>
</svg>